<svg width="512" height="512" viewBox="0 0 512 512" fill="none" xmlns="http://www.w3.org/2000/svg">
<rect width="512" height="512" fill="#252526"/>
<path d="M120 241.6C144 241.6 147.2 228.8 147.2 217.6C147.2 208 145.6 200 145.6 190.4C145.6 180.8 144 171.2 144 163.2C144 129.6 164.8 115.2 198.4 115.2H211.2V145.6H204.8C188.8 145.6 184 155.2 184 171.2C184 177.6 185.6 184 185.6 192C185.6 198.4 187.2 206.4 187.2 216C187.2 243.2 176 252.8 156.8 257.6C176 262.4 187.2 272 187.2 299.2C187.2 308.8 185.6 316.8 185.6 323.2C185.6 329.6 184 337.6 184 342.4C184 358.4 188.8 368 204.8 368H211.2V398.4H198.4C166.4 398.4 145.6 385.6 145.6 350.4C145.6 340.8 145.6 332.8 147.2 323.2C148.8 313.6 148.8 304 148.8 296C148.8 286.4 145.6 272 121.6 272L120 241.6V241.6ZM392 268.8C368 268.8 364.8 283.2 364.8 292.8C364.8 302.4 366.4 310.4 366.4 320C368 329.6 368 339.2 368 347.2C368 382.4 345.6 395.2 313.6 395.2H300.8V368H307.2C323.2 368 328 358.4 328 342.4C328 336 328 329.6 326.4 323.2C326.4 315.2 324.8 307.2 324.8 299.2C324.8 272 336 262.4 355.2 257.6C336 252.8 324.8 243.2 324.8 216C324.8 206.4 326.4 198.4 326.4 192C328 184 328 177.6 328 171.2C328 155.2 321.6 147.2 307.2 145.6H300.8V115.2H313.6C347.2 115.2 368 129.6 368 163.2C368 172.8 366.4 180.8 366.4 190.4C364.8 200 364.8 209.6 364.8 217.6C364.8 228.8 368 241.6 392 241.6V268.8V268.8Z" fill="#DBCD68"/>
</svg>
