<svg xmlns="http://www.w3.org/2000/svg" width="1440" height="695" fill="none" viewBox="0 0 1440 695"><path fill="#fff" d="M1392.54 457.773L1396.07 423.3C1399.39 422.605 1402.76 421.386 1406.03 419.519C1413.68 415.145 1418.62 408.458 1421.24 401.66C1421.27 401.574 1421.3 401.488 1421.33 401.402L1430.53 376.838L1430.54 376.81L1430.61 376.628L1430.68 376.439L1430.76 376.231C1430.87 375.926 1431.07 375.39 1431.29 374.756C1431.72 373.507 1432.41 371.317 1432.83 368.55C1433.79 362.377 1433.42 353.893 1428.42 345.608C1423.68 337.761 1416.93 333.682 1412.24 331.604C1411.88 331.445 1411.51 331.293 1411.15 331.149C1403.79 328.229 1395.79 325.961 1387.34 324.636C1376.36 322.914 1365.02 322.755 1353.37 324.16L1336.3 322.381C1322.22 320.584 1311 327.432 1304.55 336.849C1294.7 329.562 1282.05 324.223 1266.24 322.102L1266.23 322.102C1259.59 321.211 1253.13 320.895 1246.91 321.132C1251.07 312.004 1254.06 302.075 1255.17 291.555C1257.9 288.706 1264.13 281.16 1264.13 269.554C1264.13 259.054 1259.04 250.698 1252.91 245.502C1252.8 245.41 1252.69 245.319 1252.58 245.229L1249 241.956C1248.08 241.111 1247.1 240.326 1246.08 239.603L1245.96 239.516C1244.51 238.482 1237.39 233.395 1227.04 233.395C1225.19 233.395 1223.02 233.558 1220.66 234.034C1219.52 233.921 1218.35 233.862 1217.14 233.862H1216.9C1215.67 233.862 1214.44 233.937 1213.22 234.088L1207.53 234.79C1206.97 234.859 1206.41 234.944 1205.85 235.046L1205.84 235.048C1204.14 235.356 1197.51 236.56 1191.16 241.743C1189.28 243.282 1187.66 244.961 1186.28 246.732L1165.41 248.557L1165.25 248.571C1165.18 248.577 1165.11 248.584 1165.03 248.592C1162.63 248.832 1160.23 249.373 1157.89 250.196C1155.69 248.715 1153.12 247.368 1150.21 246.377C1147.65 240.792 1142.97 234.665 1135.16 230.829C1128.41 227.516 1122.14 227.459 1120.28 227.459L1107.13 227.305C1107.01 227.304 1106.89 227.303 1106.78 227.303C1098.25 227.303 1088.75 230.694 1081.96 238.88C1081.09 239.927 1080.32 240.987 1079.64 242.048C1070.3 242.746 1061.75 247.593 1056.37 255.387C1055.59 256.521 1054.92 257.653 1054.35 258.762C1054.13 258.609 1053.91 258.46 1053.7 258.317C1047.57 254.233 1041.03 252.887 1035.66 252.887H1035.51C1035.04 252.887 1034.57 252.898 1034.1 252.92L1019.45 253.607C1007.54 254.001 998.546 260.863 993.821 268.628C988.963 269.296 983.475 271.165 978.38 275.187C973.317 279.184 970.374 283.949 968.662 287.908C965.654 286.999 962.693 286.476 959.923 286.268L909.988 282.224C909.183 282.158 908.375 282.126 907.566 282.126H907.41C905.67 282.126 903.983 282.259 902.353 282.514C908.906 240.316 914.278 204.583 914.681 200.742L914.682 200.73C915.438 193.495 914.25 184.351 908.491 176.011C902.395 167.184 893.307 162.356 884.241 160.829L832.24 152.072C831.643 151.972 831.042 151.889 830.439 151.825L829.895 151.767L829.832 151.76C810.304 149.72 792.4 164.02 790.021 183.465L787.45 202.576C778.109 184.45 768.514 167.414 760.449 157.46C757.182 153.428 753.508 150.939 752.028 149.966C749.956 148.605 747.807 147.437 745.757 146.47C742.053 144.721 736.33 142.513 729.737 141.822L729.668 141.814L729.122 141.758C728.685 141.714 728.247 141.678 727.808 141.653L674.39 138.536L674.277 138.529C657.762 137.628 647.049 147.398 642.093 154.34C637.497 160.779 635.074 168.121 634.417 174.404L634.359 174.952C634.301 175.507 634.259 176.064 634.232 176.621L634.004 181.322C627.509 169.537 619.278 158.133 609.197 147.88C581.593 119.805 540.934 101.297 487.975 106.54C480.629 107.267 473.132 108.481 465.615 110.201C466.686 106.225 467.241 102.092 467.241 97.9023C467.241 94.5677 466.889 91.2696 466.206 88.0577L468.989 85.274L468.992 85.2706C473.243 81.0191 476.621 75.9685 478.927 70.4027C481.237 64.8283 482.418 58.8635 482.418 52.8515C482.418 46.8435 481.239 40.8828 478.932 35.3119L478.927 35.3006C476.621 29.7333 473.242 24.682 468.99 20.4302L468.989 20.4288C464.735 16.1753 459.684 12.7977 454.119 10.4922L454.11 10.4884C448.546 8.18404 442.584 7 436.567 7C430.551 7 424.59 8.18415 419.026 10.4884L419.016 10.4927C413.452 12.7981 408.401 16.1755 404.147 20.4288L401.358 23.2174C398.148 22.5346 394.851 22.1828 391.517 22.1828C378.97 22.1828 366.938 27.1673 358.066 36.0378L353.265 40.8385C348.562 45.5446 345.233 51.3694 343.539 57.6888C342.929 57.8171 342.259 57.9502 341.524 58.0876C335.156 59.2706 329.178 62.0812 324.189 66.2722L324.158 66.2983C320.422 69.4416 317.356 73.2628 315.102 77.5339C312.485 76.5926 309.963 76.0006 307.662 75.6349C299.152 74.2821 290.617 75.6636 285.505 76.5472C258.153 81.275 230.172 93.4614 209.419 112.33C191.238 128.86 177.105 152.262 177.329 180.319C175.994 171.677 174.625 163.094 173.281 154.673L173.28 154.667L173.279 154.666L173.279 154.662L173.277 154.652L173.277 154.651C171.374 142.726 169.522 131.124 167.896 120.136C167.796 119.46 167.673 118.787 167.527 118.119L167.417 117.616L167.412 117.591L167.41 117.584C163.178 98.2065 145.217 85.8521 125.945 87.7303C125.443 87.7792 124.942 87.8407 124.444 87.9148C120.237 88.5402 73.9576 96.3033 65.1683 98.2156L65.1649 98.2163C61.3231 99.0527 50.8733 101.712 43.1863 111.78C35.0166 122.48 35.1217 134.486 36.5243 142.384C36.5649 142.613 36.6081 142.841 36.654 143.068C41.9024 169.098 47.2076 198.882 51.1186 225.531C54.9288 251.493 57.1214 272.587 57.1457 284.457C56.0508 285.334 53.7252 286.691 49.9609 287.509L49.9492 287.512C47.7546 287.99 47.5252 288.009 47.4421 288.016L47.4312 288.016C46.1915 288.128 44.96 288.317 43.7438 288.581L42.6724 288.814L42.6663 288.815C27.2368 292.174 13.4293 305.577 11.7831 324.091C11.7682 324.258 11.7547 324.426 11.7426 324.594L9.66264 353.488C9.18418 359.53 10.4994 364.644 10.5696 364.917L10.5725 364.928L10.5734 364.932C11.7187 370.196 17.528 390.315 39.7181 394.61C45.059 395.703 50.6166 396.444 56.3011 396.829C20.0493 428.151 0.507587 477.06 8.95132 527.777C21.8386 605.18 95.0339 657.481 172.438 644.594C222.456 636.266 261.993 602.755 280.23 559.198C287.004 567.496 297.654 572.882 310.048 571.534L330.347 569.798L334.513 576.744C335.473 578.193 336.427 579.638 337.374 581.081L336.008 582.444L332.13 586.316C331.014 587.431 329.902 588.541 328.797 589.645C328.705 589.736 328.614 589.829 328.523 589.922C324.509 594.037 320.52 598.827 317.397 604.283L317.372 604.328C312.316 613.197 310.774 623.166 312.571 632.893L312.572 632.9C314.657 644.168 321.647 655.329 334.448 661.001C344.983 665.669 355.498 664.759 362.321 663.497L362.325 663.497C366.055 662.806 371.503 661.748 378.591 660.342L378.628 660.335C378.867 660.287 379.108 660.239 379.349 660.19C380.37 662.748 381.392 665.366 382.417 668.045C385.464 676.017 391.763 682.313 399.737 685.358C407.71 688.403 416.603 687.907 424.188 683.995L436.151 677.826C448.57 671.422 454.783 657.409 451.567 644.128C453.773 643.595 455.983 643.058 458.199 642.519C466.348 640.534 473.295 635.229 477.354 627.889C481.413 620.549 482.214 611.844 479.562 603.887L475.778 592.531C472.858 583.767 466.807 577.408 458.199 574.057C464.269 573.556 467.725 573.715 473.742 572.775C493.24 569.728 506.325 564.079 520.43 553.439C520.152 573.984 537.295 585.845 551.44 587.12C551.99 587.17 552.542 587.205 553.093 587.224L589.063 588.474C604.417 589.304 618.11 579.622 622.801 565.5H629.976L630.549 574.31C630.576 574.738 630.613 575.164 630.659 575.59C632.051 588.463 642.991 606.311 664.51 605.957L664.528 605.956L664.876 605.951C665.362 605.943 665.848 605.923 666.333 605.892L700.473 603.671C700.9 603.643 701.326 603.606 701.752 603.56C705.16 603.191 708.337 602.358 711.254 601.143C714.15 601.917 717.311 602.323 720.741 602.267L721.106 602.261C721.648 602.252 722.189 602.228 722.73 602.19L756.685 599.79C757.056 599.764 757.426 599.731 757.796 599.691C765.023 598.909 771.215 596.039 776.075 591.863C780.302 594.215 784.32 595.879 787.8 597.048C792.222 598.533 798.25 600.043 803.862 599.951C809.474 599.859 816.249 598.348 823 594.5C827.583 591.888 833.5 586 833.5 586C833.5 586 841.116 578.877 845 573.5C846.237 571.788 848 569 848 569C866.943 579.505 888.787 583.123 910.368 578.158C918.386 576.312 926.347 573.314 933.957 569.111C936.79 569.821 939.432 570.321 941.778 570.676C945.499 571.238 948.905 571.499 951.771 571.567C953.426 571.607 957.966 571.704 962.455 570.673C981.641 566.258 987.651 549.621 989.357 543.219C989.39 543.093 989.423 542.966 989.455 542.84L991.634 534.21C1005.81 548.704 1023.68 553.78 1041.5 554.891C1043.54 555.085 1045.3 555.061 1046.65 554.983C1048.29 554.889 1049.72 554.677 1049.94 554.646L1049.96 554.643L1050 554.637C1059.03 553.344 1066.93 548.724 1072.46 541.723C1077.06 535.911 1078.93 529.796 1079.8 526.512C1079.82 526.433 1079.84 526.354 1079.86 526.275L1086.01 502.137C1086.2 501.405 1086.35 500.666 1086.48 499.923L1086.52 499.723C1086.54 499.625 1086.56 499.472 1086.59 499.295C1086.65 498.966 1086.75 498.369 1086.84 497.647C1086.93 496.949 1087.05 495.823 1087.09 494.452C1087.13 493.238 1087.12 491.227 1086.76 488.785C1086.64 488.015 1086.5 487.253 1086.33 486.5L1088.75 484.75L1090.79 488.249C1102.62 508.332 1121.13 517.259 1140.31 521.438C1142.33 521.95 1144.09 522.191 1145.42 522.316C1147.06 522.47 1148.51 522.477 1148.71 522.478L1148.73 522.478L1148.75 522.478C1152.68 522.518 1156.51 521.915 1160.11 520.727L1161.71 522.887C1158.73 528.001 1157.06 533.918 1157.06 540.147C1157.06 555.478 1167.22 568.942 1181.93 573.166L1194.08 576.639L1197.53 588.732L1197.56 588.837C1201.79 603.457 1215.19 613.657 1230.56 613.657C1234.9 613.657 1239.1 612.84 1242.99 611.33C1248.56 623.165 1260.53 631.061 1274.08 631.061C1287.87 631.061 1300.03 622.875 1305.46 610.681C1317.66 605.246 1325.84 593.076 1325.84 579.306C1325.84 566.807 1319.1 555.626 1308.73 549.604C1308.65 549.556 1308.75 549.445 1309.01 549.28C1311.79 545.997 1313.98 542.166 1315.38 537.935C1329.31 533.308 1338.89 520.239 1338.89 505.34C1338.89 498.106 1336.63 491.302 1332.71 485.687L1355.03 487.934C1372.78 490.067 1389.34 477.839 1392.25 459.911L1392.29 459.622C1392.4 459.009 1392.48 458.392 1392.54 457.773Z"/><path fill="#FE9900" d="M1359.85 460.164L1323.61 456.515C1321.44 456.175 1319.87 454.448 1320.21 452.282L1329.87 357.611C1330.21 355.445 1332.12 353.894 1334.11 354.206L1355.22 356.407C1365.44 354.866 1375.07 354.894 1384.09 356.31C1390.22 357.274 1396.07 358.929 1401.47 361.071C1404.06 362.217 1404.93 363.831 1404.58 365.999C1404.46 366.72 1404.17 367.414 1403.85 368.288L1394.62 392.923C1393.68 395.365 1391.68 396.346 1389.51 396.006C1388.98 395.921 1388.28 395.627 1387.59 395.334C1384.84 393.978 1381.85 392.956 1378.78 392.474C1376.26 392.077 1373.68 392.042 1370.67 392.311L1364.08 456.759L1364.03 457.12C1363.71 459.105 1361.84 460.476 1359.85 460.164Z"/><path fill="#F9B634" d="M1253.41 463.128L1251.23 462.837C1210.12 457.323 1193.24 426.48 1196.93 398.951C1200.4 373.05 1222.34 348.335 1263.63 353.873C1308.55 359.896 1305.17 400.191 1304.37 406.169C1303.26 414.499 1298.89 420.921 1287.72 423.11C1278.82 424.867 1265.15 425.062 1255.69 424.16C1252.79 423.772 1252.04 422.383 1251.62 420.112C1250.24 413.844 1248.38 401.61 1248.48 400.885C1248.74 398.892 1250.31 398.182 1252.74 397.954C1262.45 397.044 1263.76 396.852 1264.11 394.315C1264.33 392.685 1261.67 386.428 1254.06 385.408C1245.37 384.242 1237.1 390.877 1235.6 402.107C1233.87 414.966 1241.35 430.72 1263.98 433.755C1265.25 433.925 1266.7 434.12 1267.99 434.109L1268.36 434.158C1270.89 434.497 1273.75 436.54 1273.34 439.619C1273.1 441.431 1266.74 453.115 1263.19 458.909C1261.35 461.613 1258.66 463.832 1253.41 463.128Z"/><path fill="#FE9900" d="M1166.09 466.352L1156.35 489.277C1154.85 492.735 1153.19 494.544 1150.44 494.516C1149.9 494.51 1149.35 494.505 1148.8 494.316C1119.44 488.164 1109.38 471.976 1108.94 425.737L1095.25 424.863C1093.24 424.66 1091.61 422.815 1091.63 420.805L1094.14 390.495C1094.34 388.487 1096 386.859 1098.2 386.882L1109.88 387.734C1110.32 380.794 1110.77 373.306 1111.39 365.454C1111.6 363.264 1112 359.795 1116.75 359.844L1117.48 359.853L1152 361.855C1155.11 362.07 1156.55 363.912 1156.52 367.018C1156.07 374.69 1155.44 382.724 1154.81 390.394L1167.41 391.255C1169.42 391.276 1171.05 393.12 1171.03 395.313L1168.52 425.624C1168.32 427.449 1166.84 429.079 1164.83 429.058L1164.46 429.054L1152.41 428.381C1152.24 445.009 1154.3 457.64 1162.3 461.196C1164.3 462.13 1166.49 462.883 1166.47 464.893C1166.46 465.259 1166.28 465.806 1166.09 466.352Z"/><path fill="#F9B634" d="M1058.33 496.766L1052.17 520.904C1051.22 524.547 1049.85 526.589 1047.13 526.977C1046.59 527.053 1046.05 527.131 1045.48 527.028C1015.53 525.397 1003.12 510.922 995.685 465.282L982.013 466.495C979.997 466.599 978.111 465.023 977.827 463.032L975.71 432.692C975.608 430.676 977.002 428.815 979.173 428.506L990.855 427.576C990.235 420.651 989.539 413.181 988.971 405.325C988.842 403.128 988.712 399.639 993.416 398.968L994.14 398.864L1028.56 395.611C1031.67 395.353 1033.37 396.956 1033.81 400.031C1034.53 407.681 1035.13 415.719 1035.67 423.394L1048.25 422.335C1050.24 422.052 1052.13 423.628 1052.44 425.799L1054.56 456.14C1054.63 457.975 1053.42 459.81 1051.43 460.093L1051.07 460.145L1039.05 461.307C1041.4 477.769 1045.35 489.942 1053.8 492.244C1055.92 492.864 1058.2 493.277 1058.48 495.267C1058.53 495.629 1058.43 496.198 1058.33 496.766Z"/><path fill="#FE9900" d="M967.841 513.44L961.758 537.53C960.852 540.926 959.44 542.938 957.124 543.472C955.344 543.881 942.222 543.9 931.391 537.579C923.238 544.517 914.113 548.868 905.029 550.957C875.289 557.8 844.399 540.905 837.802 512.233C832.885 490.863 840.933 456.571 876.195 448.458C885.099 446.408 894.277 446.36 901.919 447.789C902.701 446.296 904.18 445.394 906.317 444.903L907.207 444.697L938.632 440.279C943.344 439.57 945.124 441.599 945.615 443.736L945.819 444.626C947.056 461.405 948.127 477.473 950.831 489.227C953.29 499.913 957.01 507.12 963.406 508.835C965.392 509.316 967.597 509.934 968.007 511.715C968.088 512.071 968.033 512.646 967.841 513.44ZM912.67 512.446C911.071 507.939 909.567 503.034 908.297 497.514C907.232 492.883 906.303 488.034 905.43 482.609C902.473 479.539 897.092 478.153 891.927 479.341C880.708 481.922 876.974 494.22 879.064 503.302C881.358 513.275 890.271 520.225 901.846 517.562C905.23 516.783 908.984 515.169 912.67 512.446Z"/><path fill="#F9B634" d="M755.957 571.901L722.003 574.301L721.637 574.307C719.811 574.338 718.321 572.718 718.104 570.711L715.628 532.19C714.402 513.75 710.435 506.142 698.909 505.422L703.317 571.692C703.354 573.884 701.92 575.554 699.913 575.77L665.773 577.991L665.408 577.997C663.581 578.028 662.092 576.408 661.875 574.402L655.704 479.466L655.698 479.101C655.664 477.091 657.101 475.604 658.926 475.391L669.879 474.658C679.145 471.395 688.256 469.779 697.026 469.631C705.248 469.492 712.944 470.642 720.116 473.263C731.736 468.68 742.848 466.482 753.08 466.309C785.237 465.767 809.15 485.65 811.72 518.871C812.652 530.735 814.814 539.654 823.514 546.27C824.627 547.165 826.85 548.956 826.884 550.964C826.899 551.878 826.552 552.981 825.471 553.913C825.477 554.278 810.196 569.341 810.196 569.341C808.218 571.201 806.585 571.96 804.758 571.991C802.199 572.035 773.418 566.854 770.618 530.896C769.372 511.178 765.411 503.934 754.972 502.649L759.361 567.822C759.398 570.015 757.964 571.684 755.957 571.901Z"/><path fill="#FE9900" d="M591.923 560.543L555.523 559.278C553.34 559.082 551.651 557.462 551.848 555.277L555.287 460.176C555.484 457.992 557.286 456.32 559.288 456.501L580.499 457.312C590.606 455.105 600.201 454.503 609.301 455.323C615.489 455.881 621.429 457.151 626.957 458.934C629.621 459.908 630.582 461.463 630.385 463.646C630.319 464.374 630.072 465.086 629.807 465.98L622.215 491.165C621.439 493.664 619.504 494.775 617.321 494.578C616.774 494.528 616.063 494.281 615.351 494.033C612.521 492.86 609.477 492.035 606.382 491.756C603.835 491.526 601.253 491.661 598.276 492.127L595.923 556.867L595.891 557.231C595.71 559.233 593.924 560.723 591.923 560.543Z"/><path fill="#FE9900" d="M845.242 417.221L794.031 408.822C791.033 408.508 788.864 405.524 787.486 402.9C782.703 393.304 738.808 286.176 728.628 270.225C727.708 268.476 726.675 267.817 725.857 267.73C724.494 267.588 723.835 268.621 723.606 270.802L723.492 271.893L725.225 389.485L725.197 389.758C724.883 392.757 721.585 397.924 714.683 398.027L663.019 399.227L662.2 399.142C658.112 398.713 655.297 394.008 655.396 390.436L665.584 180.11L665.642 179.564C665.956 176.564 668.55 170.222 674.031 170.521L727.448 173.638L727.994 173.695C732.084 174.124 737.308 176.876 738.527 178.382C753.171 196.453 780.875 255.582 801.958 301.613C802.605 303.334 803.366 303.965 804.184 304.051C805.274 304.165 805.991 302.586 806.22 300.406L821.175 189.248C821.517 185.977 824.831 183.292 828.102 183.634L828.648 183.691L880.648 192.448C884.981 193.178 886.575 196.377 886.232 199.648C885.489 206.736 861.845 361.357 852.715 411.665C852.343 415.209 849.059 417.621 845.242 417.221Z"/><path fill="#FE9900" d="M623.982 244.115C631.408 319.129 561.752 369.546 506.378 375.029C444.185 381.186 385.092 340.76 378.368 272.837C376.883 257.836 378.017 241.472 382.072 223.992C394.751 171.227 444.311 143.183 492.32 138.43C579.609 129.789 619.472 198.562 623.982 244.115ZM509.685 313.826C542.145 310.612 558.266 281.471 555.215 250.648C552.541 223.642 534.952 193.431 497.035 197.185C457.483 201.101 447.192 236.276 449.649 261.098C453.079 295.741 481.589 316.608 509.685 313.826Z"/><path fill="#FE9900" d="M236.542 350.564L220.627 311.588C220.263 311.095 220.122 310.285 220.03 309.745C219.329 305.693 223.147 303.643 224.768 303.362L225.848 303.175C244.216 300.001 262.523 286.822 259.581 269.805C258.041 260.892 251.778 253.629 233.271 233.462C219.303 218.629 211.826 204.344 209.538 191.108C202.161 148.431 246.626 115.988 292.004 108.145C302.537 106.324 308.127 106.471 310.728 111.863L327.092 150.205C327.501 150.969 327.641 151.779 327.735 152.318C328.482 156.641 324.71 158.962 323.09 159.242L321.469 159.522C303.912 162.557 288.557 171.886 291.217 187.283C292.805 196.466 301.752 207.995 317.21 223.403C331.45 238.19 338.926 252.475 341.26 265.981C349.011 310.818 299.834 346.58 253.106 354.655C250.405 355.122 247.973 355.542 245.226 355.74C241.715 356.346 237.96 353.935 236.542 350.564Z"/><path fill="#FE9900" d="M40.961 357.853L43.0535 328.784C43.4606 324.208 46.954 320.924 50.4359 320.166L51.5074 319.932C53.7084 319.735 55.5834 319.327 57.7261 318.86C74.8684 315.132 88.1199 303.834 88.5139 288.88C89.0576 260.429 78.125 192.116 67.4506 139.176C66.2035 132.152 69.4526 130.324 72.9345 129.567C80.7021 127.877 126.167 120.231 130.243 119.625C134.913 119.17 138.616 122.011 139.49 126.029L139.607 126.565C147.37 179.017 158.79 237.967 159.122 283.339C159.757 333.975 126.197 358.949 91.1093 366.581C75.842 369.902 60.1434 369.951 46.925 367.216C43.4195 366.575 41.8585 363.269 41.2758 360.59C41.0428 359.519 40.868 358.715 40.961 357.853Z"/><path fill="#F9B634" fill-rule="evenodd" d="M526.644 482.476C530.884 517.857 497.328 541.938 471.562 545.025C441.986 548.568 413.475 530.266 409.65 498.333C405.171 460.955 430.787 438.193 462.721 434.367C502.821 429.562 523.818 458.887 526.644 482.476ZM487.953 486.742C489.192 497.085 484.647 508.304 471.765 509.848C461.423 511.087 450.624 503.914 449.124 491.395C448.146 483.23 450.958 469.825 466.198 467.999C484.706 465.782 487.54 483.295 487.953 486.742Z" clip-rule="evenodd"/><path fill="#FE9900" d="M344.499 540.632L308.392 543.721C306.221 544.029 304.13 542.295 303.822 540.124L303.771 539.762L291.18 397.584C290.846 395.231 292.581 393.14 295.114 392.781L328.299 389.922L329.023 389.819L379.345 385.453C381.516 385.145 383.788 386.853 384.122 389.206L384.173 389.568L387.213 424.02C387.52 426.191 385.812 428.463 383.46 428.797L383.099 428.848L339.341 432.653L340.593 446.688L372.718 445.455C375.12 445.483 377.006 447.062 377.313 449.233L377.391 449.776L377.72 480.736C377.847 482.934 376.113 485.024 373.76 485.358L373.399 485.409L344.014 486.437L348.433 535.83C348.585 538.207 346.851 540.299 344.499 540.632Z"/><path fill="#F9B634" d="M1200.44 336.228L1190.77 331.55C1190.07 331.238 1189.68 330.848 1189.68 330.224C1189.68 329.834 1189.83 329.367 1190.14 328.821C1197.94 315.8 1205.11 295.996 1205.11 294.436C1205.11 293.734 1204.72 293.501 1204.02 293.501H1203.55L1170.81 296.775H1170.65C1169.79 296.775 1169.17 296.152 1169.09 295.294L1167.92 282.195V282.039C1167.92 281.259 1168.62 280.558 1169.4 280.48L1217.59 276.269H1217.98C1221.56 276.269 1227.02 279.232 1227.02 284.69C1227.02 303.325 1217.2 321.492 1204.1 335.682C1203.79 336.072 1202.85 336.54 1201.84 336.54C1201.37 336.54 1200.9 336.462 1200.44 336.228ZM1234.75 272.995L1230.46 276.737C1230.07 277.049 1229.68 277.205 1229.36 277.205C1228.81 277.205 1228.35 276.893 1227.96 276.503L1222.96 271.123C1222.57 270.733 1222.42 270.344 1222.42 270.032C1222.42 269.486 1222.96 269.096 1223.28 268.862L1227.25 265.821C1227.64 265.509 1228.03 265.432 1228.42 265.432C1229.04 265.432 1229.59 265.743 1230.14 266.133L1234.66 270.266L1234.89 270.422C1235.37 270.811 1235.53 271.201 1235.53 271.591C1235.53 272.059 1235.21 272.527 1234.75 272.995ZM1220.16 275.801L1215.33 276.113H1214.78C1213.69 276.113 1213.14 275.723 1212.91 274.944L1211.27 268.94C1211.19 268.55 1211.12 268.316 1211.12 268.005C1211.12 267.069 1211.74 266.757 1212.6 266.601L1218.29 265.899H1218.52C1219.61 265.899 1220.39 266.835 1220.63 267.771L1221.95 273.618C1222.03 273.852 1222.03 274.086 1222.03 274.32C1222.03 275.178 1221.49 275.646 1220.16 275.801Z"/><path fill="#FE9900" d="M1140.99 292.399H1140.84L1121.89 291.542C1114.8 316.336 1099.36 325.224 1097.25 325.224C1096.32 325.224 1095.38 324.601 1094.21 323.665L1086.34 317.505C1085.95 317.193 1085.79 316.882 1085.79 316.492C1085.79 315.79 1086.57 315.01 1087.35 314.465C1095.15 309.007 1099.59 300.196 1102.16 290.606L1082.91 289.748C1082.05 289.748 1081.42 289.046 1081.42 288.189V288.033L1082.13 275.558C1082.2 274.7 1082.52 273.998 1083.37 273.998L1104.97 275.012C1105.44 270.412 1105.67 265.967 1105.83 261.913C1105.91 260.432 1106.61 259.34 1108.17 259.34L1121.5 259.496C1124.54 259.496 1125.01 260.588 1125.01 268.852C1125.01 271.113 1124.93 273.531 1124.7 275.948L1141.38 276.727C1142.32 276.727 1143.33 277.585 1143.33 278.443L1142.55 290.918C1142.55 291.775 1141.85 292.399 1140.99 292.399Z"/><path fill="#F9B634" d="M1021.46 335.994L1020.52 287.653C1020.52 286.639 1020.91 285.626 1021.92 285.626L1036.89 284.924H1037.05C1038.06 284.924 1039.08 285.47 1039.08 286.405V313.539C1039.08 314.864 1039.31 315.254 1040.09 315.254C1040.79 315.254 1041.65 315.02 1050.77 312.759C1051.16 312.681 1051.55 312.525 1051.86 312.525C1052.49 312.525 1052.96 312.837 1053.42 313.695C1059.35 323.909 1059.43 324.22 1059.43 325.078C1059.43 325.78 1059.04 326.404 1058.26 326.949C1048.2 334.357 1028.63 339.035 1024.03 339.035C1022.08 339.035 1021.46 337.787 1021.46 335.994ZM1000.56 332.095L989.333 328.821C988.007 328.431 987.617 327.963 987.617 327.339C987.617 326.871 987.851 326.326 988.163 325.624C991.126 319.542 995.258 308.549 997.441 302.233C997.909 300.83 998.689 300.362 999.625 300.362C999.858 300.362 1000.17 300.362 1000.4 300.44L1013.58 303.948C1014.75 304.26 1015.61 304.962 1015.61 306.365C1015.61 310.81 1005.55 332.329 1001.89 332.329C1001.5 332.329 1001.11 332.251 1000.56 332.095Z"/><path fill="#FE9900" d="M942.95 333.421L907.552 330.146C906.694 329.99 905.993 329.289 905.993 328.431V328.275L907.162 315.722C907.24 314.864 907.942 314.162 908.8 314.162H908.956L959.012 318.217C962.443 318.451 967.511 320.79 967.511 325.858C967.511 330.38 964.314 341.14 956.673 348.703C956.361 349.093 955.659 349.717 954.646 349.717C954.334 349.717 954.022 349.717 953.71 349.561C944.12 346.364 942.249 345.74 942.249 344.025C942.249 343.557 942.326 343.167 942.482 342.699C944.51 335.994 944.51 335.058 944.51 334.824C944.51 333.967 944.042 333.655 942.95 333.421ZM918.234 376.46L909.657 371.626C908.8 371.158 908.566 370.534 908.566 369.911C908.566 369.131 909.033 368.273 909.423 367.728C913.712 361.49 918.312 348.937 920.105 342.076C920.339 340.906 921.197 340.126 922.366 340.126C922.6 340.126 922.912 340.126 923.146 340.204L936.869 343.323C938.584 343.713 939.286 344.571 939.286 345.818V346.208C937.726 360.164 924.705 377.162 920.339 377.162C919.715 377.162 919.092 376.928 918.234 376.46Z"/><path fill="#FE9900" d="M1279.59 562.564C1279.01 560.786 1277.34 559.587 1275.46 559.587C1273.6 559.587 1271.93 560.786 1271.33 562.564L1269.05 569.425C1268.63 570.707 1267.91 571.871 1266.94 572.826C1265.99 573.782 1264.82 574.501 1263.55 574.929L1256.69 577.215C1254.91 577.807 1253.71 579.47 1253.71 581.342C1253.71 583.216 1254.91 584.879 1256.69 585.471L1263.55 587.756C1264.82 588.184 1265.99 588.903 1266.94 589.858C1267.91 590.813 1268.63 591.978 1269.05 593.259L1271.33 600.121C1271.93 601.898 1273.6 603.097 1275.46 603.097C1277.34 603.097 1279.01 601.898 1279.59 600.121L1281.88 593.259C1282.31 591.978 1283.03 590.813 1283.98 589.858C1284.94 588.903 1286.1 588.183 1287.37 587.756L1294.25 585.471C1296.02 584.879 1297.22 583.216 1297.22 581.342C1297.22 579.47 1296.02 577.807 1294.25 577.215L1287.37 574.929C1286.1 574.501 1284.94 573.782 1283.98 572.826C1283.03 571.871 1282.31 570.707 1281.88 569.425L1279.59 562.564Z"/><path fill="#FE9900" d="M1236.13 501.83C1235.6 499.961 1233.89 498.674 1231.96 498.674C1230.01 498.674 1228.3 499.961 1227.76 501.829L1223.05 518.345C1222.03 521.899 1220.13 525.136 1217.51 527.749C1214.9 530.363 1211.66 532.268 1208.11 533.284L1191.6 538C1189.73 538.533 1188.44 540.24 1188.44 542.183C1188.44 544.125 1189.73 545.833 1191.6 546.367L1208.11 551.089C1211.67 552.105 1214.91 554.01 1217.52 556.623C1220.14 559.237 1222.04 562.474 1223.05 566.027L1227.76 582.537C1228.3 584.406 1230.01 585.694 1231.96 585.694C1233.89 585.694 1235.6 584.406 1236.13 582.537L1240.8 566.199C1240.82 566.141 1240.84 566.081 1240.86 566.022C1241.87 562.467 1243.78 559.232 1246.39 556.617C1249.01 554.004 1252.24 552.1 1255.8 551.084L1272.3 546.367C1274.18 545.833 1275.46 544.126 1275.46 542.184C1275.46 540.241 1274.18 538.534 1272.3 538.001L1255.8 533.278C1252.24 532.262 1249 530.357 1246.39 527.744C1243.77 525.13 1241.87 521.893 1240.85 518.339L1236.13 501.83Z"/><path fill="#FE9900" d="M1288.39 484.565C1287.9 482.628 1286.16 481.269 1284.17 481.269C1282.17 481.269 1280.43 482.628 1279.94 484.565L1278.44 490.571C1277.77 493.249 1276.39 495.694 1274.44 497.645C1272.49 499.597 1270.04 500.982 1267.36 501.652L1261.35 503.155C1259.42 503.639 1258.06 505.379 1258.06 507.376C1258.06 509.373 1259.42 511.112 1261.35 511.597L1267.37 513.099C1270.04 513.769 1272.49 515.155 1274.44 517.106C1276.39 519.058 1277.77 521.505 1278.44 524.182L1279.94 530.187C1280.43 532.124 1282.17 533.482 1284.17 533.482C1286.16 533.482 1287.9 532.124 1288.39 530.187L1289.88 524.181C1290.55 521.503 1291.94 519.058 1293.89 517.105C1295.84 515.153 1298.29 513.768 1300.97 513.099L1306.98 511.597C1308.91 511.112 1310.27 509.371 1310.27 507.376C1310.27 505.379 1308.91 503.639 1306.98 503.155L1300.97 501.652C1298.29 500.982 1295.84 499.598 1293.89 497.647C1291.94 495.694 1290.55 493.247 1289.88 490.568L1288.39 484.565Z"/><path fill="#F9B634" fill-rule="evenodd" d="M412.561 131.382C415.431 127.908 418.041 124.269 419.961 120.797C420.318 120.151 420.664 119.488 420.99 118.813C421.757 119.067 422.564 119.199 423.385 119.199C425.404 119.199 427.341 118.397 428.769 116.97L433.562 112.177C436.807 108.931 438.63 104.529 438.63 99.9386C438.63 95.3482 436.807 90.9455 433.56 87.6994L430.563 84.7023L449.165 66.0965C450.637 64.6246 451.804 62.8771 452.601 60.9539C453.398 59.0306 453.808 56.9694 453.808 54.8878C453.808 52.8061 453.398 50.7449 452.601 48.8217C451.804 46.8986 450.637 45.1511 449.165 43.6792C447.694 42.2072 445.945 41.0395 444.023 40.243C442.099 39.4464 440.038 39.0363 437.956 39.0363C435.875 39.0363 433.814 39.4464 431.89 40.243C429.968 41.0395 428.22 42.2072 426.748 43.6792L408.141 62.2851L405.144 59.2881C401.899 56.0423 397.496 54.2191 392.905 54.2191C388.315 54.2191 383.912 56.0427 380.667 59.2883L375.874 64.0807C374.446 65.5086 373.645 67.4449 373.645 69.4639C373.645 71.483 374.447 73.42 375.875 74.848L376.103 75.0762C372.664 79.3921 369.032 82.2738 365.174 84.3459C360.315 86.9547 354.862 88.4106 348.402 89.6173C347.1 89.8576 345.881 90.4321 344.866 91.2848C343.849 92.1404 343.072 93.2463 342.611 94.4937C342.152 95.7412 342.025 97.087 342.243 98.3983C342.463 99.7098 343.018 100.942 343.859 101.972L353.169 113.271L381.033 147.086C381.105 147.171 381.18 147.255 381.255 147.337C382.765 148.94 384.755 150.01 386.925 150.383C389.095 150.757 391.328 150.414 393.286 149.408C393.476 149.31 393.66 149.201 393.835 149.08C399.684 145.075 406.851 138.296 412.561 131.382ZM369.976 93.2902C364.997 95.9637 359.745 97.5773 354.371 98.7656L359.96 105.547L409.186 118.974C409.895 117.907 410.53 116.873 411.076 115.884C411.999 114.214 412.564 112.869 412.875 111.845L383.319 82.2913C379.256 87.1707 374.814 90.6922 369.976 93.2902ZM437.956 49.1887C437.208 49.1887 436.467 49.3361 435.775 49.6225C435.085 49.9089 434.456 50.3286 433.926 50.8578L413.526 71.2589C412.098 72.6864 410.161 73.4887 408.141 73.4887C406.122 73.4887 404.187 72.6869 402.759 71.2594L397.966 66.4673C396.624 65.1254 394.804 64.3713 392.905 64.3713C391.007 64.3713 389.187 65.1252 387.845 66.467L384.849 69.4638L423.385 107.996L426.382 104.999C427.724 103.657 428.478 101.837 428.478 99.9386C428.478 98.0406 427.724 96.2204 426.382 94.8782L421.591 90.0863C420.163 88.6584 419.36 86.7215 419.36 84.7025C419.36 82.6834 420.162 80.7471 421.59 79.3193L441.986 58.9182C442.515 58.389 442.935 57.7602 443.221 57.0687C443.508 56.3773 443.655 55.6363 443.655 54.8878C443.655 54.1394 443.508 53.3983 443.221 52.7068C442.935 52.0153 442.516 51.3871 441.986 50.8578C441.457 50.3286 440.829 49.9089 440.138 49.6225C439.446 49.3361 438.705 49.1887 437.956 49.1887ZM371.145 119.121L388.627 140.337C392.728 137.432 397.836 132.757 402.392 127.643L371.145 119.121Z" clip-rule="evenodd"/><path fill="#FE9900" d="M411.826 659.368C409.649 653.671 407.467 648.21 405.284 642.978C403.096 637.741 400.84 632.69 398.509 627.824C389.327 629.833 381.205 631.541 374.139 632.952C367.08 634.353 361.786 635.381 358.254 636.034C349.5 637.653 344.568 635.469 343.461 629.479C342.915 626.53 343.367 623.778 344.824 621.221C346.288 618.663 348.475 615.891 351.387 612.906C355.495 608.803 359.675 604.631 363.921 600.39C368.174 596.141 372.547 591.869 377.037 587.576C374.514 583.269 371.899 579.027 369.189 574.858C366.487 570.681 363.729 566.462 360.907 562.207L371.666 554.418C374.311 558.306 376.936 562.192 379.542 566.082C382.143 569.965 384.631 573.924 386.998 577.965C391.412 573.794 395.923 569.603 400.525 565.392C405.134 561.185 409.854 557.007 414.677 552.863L421.983 562.645C416.879 566.949 411.928 571.221 407.121 575.465C402.314 579.702 397.603 583.926 392.993 588.134C395.509 592.35 397.933 596.631 400.261 600.973C402.59 605.32 404.815 609.685 406.94 614.065C413.972 612.47 420.989 610.823 427.993 609.122C434.992 607.414 441.898 605.723 448.705 604.051L452.489 615.408C445.578 617.091 438.715 618.742 431.899 620.36C425.081 621.97 418.497 623.471 412.146 624.856C414.314 629.435 416.346 634.086 418.238 638.819C420.13 643.552 421.98 648.348 423.79 653.2L411.826 659.368ZM357.083 624.814C363.167 623.593 369.238 622.324 375.295 621.001C381.348 619.67 387.367 618.401 393.351 617.198C391.714 613.841 390.007 610.543 388.235 607.313C386.469 604.081 384.691 600.908 382.897 597.785C373.831 606.475 365.084 615.256 356.656 624.13L357.083 624.814Z"/><path fill="#252526" d="M261.052 488.071C250.885 427.011 193.145 385.753 132.084 395.92C71.0242 406.086 29.7664 463.826 39.9324 524.886C50.0985 585.946 107.839 627.204 168.899 617.038C229.959 606.872 271.217 549.132 261.052 488.071Z"/><path fill="#DBCD68" d="M90.7217 510.039C101.087 508.313 101.548 502.555 100.743 497.719C100.053 493.572 98.7864 490.232 98.0961 486.087C97.4059 481.941 96.0246 477.909 95.4493 474.454C93.0334 459.944 100.981 452.228 115.492 449.812L121.02 448.893L123.205 462.022L120.442 462.481C113.532 463.632 112.149 468.123 113.299 475.033C113.76 477.797 114.911 480.446 115.486 483.901C115.946 486.665 117.212 490.004 117.903 494.15C119.859 505.898 115.712 510.849 107.765 514.303C116.402 514.995 121.93 518.335 123.885 530.083C124.576 534.229 124.46 537.799 124.919 540.563C125.38 543.327 125.264 546.897 125.609 548.97C126.76 555.88 129.523 559.68 136.433 558.53L139.197 558.069L141.383 571.199L135.854 572.119C122.036 574.42 112.132 570.387 109.601 555.186C108.91 551.04 108.335 547.585 108.336 543.323C108.337 539.063 107.646 534.916 107.071 531.462C106.381 527.315 103.963 521.328 93.5985 523.053L90.7217 510.039ZM210.147 502.227C199.782 503.954 199.435 510.402 200.126 514.549C200.815 518.695 202.082 522.034 202.772 526.18C204.153 530.211 204.844 534.357 205.419 537.812C207.95 553.015 199.196 560.153 185.376 562.454L179.849 563.374L177.892 551.627L180.657 551.167C187.567 550.017 188.949 545.526 187.799 538.616C187.339 535.852 186.878 533.088 185.727 530.439C185.152 526.984 183.886 523.643 183.311 520.188C181.355 508.442 185.502 503.491 193.448 500.037C184.812 499.345 179.285 496.004 177.328 484.257C176.639 480.111 176.754 476.541 176.294 473.777C176.41 470.208 175.949 467.443 175.489 464.679C174.339 457.769 170.999 454.774 164.665 455.119L161.901 455.578L159.716 442.45L165.244 441.529C179.755 439.114 189.773 443.837 192.189 458.348C192.879 462.493 192.764 466.064 193.453 470.21C193.453 474.47 194.143 478.617 194.718 482.072C195.523 486.909 197.826 492.207 208.191 490.481L210.147 502.227Z"/><mask id="mask0_27_1392" style="mask-type:alpha" width="1365" height="471" x="40" y="107" maskUnits="userSpaceOnUse"><path fill="#fff" d="M1359.85 460.164L1323.61 456.515C1321.44 456.175 1319.87 454.448 1320.21 452.282L1329.87 357.611C1330.21 355.445 1332.12 353.894 1334.11 354.206L1355.22 356.407C1365.44 354.866 1375.07 354.894 1384.09 356.31C1390.22 357.274 1396.07 358.929 1401.47 361.071C1404.06 362.217 1404.93 363.831 1404.58 365.999C1404.46 366.72 1404.17 367.414 1403.85 368.288L1394.62 392.923C1393.68 395.365 1391.68 396.346 1389.51 396.006C1388.98 395.921 1388.28 395.627 1387.59 395.334C1384.84 393.978 1381.85 392.956 1378.78 392.474C1376.26 392.077 1373.68 392.042 1370.67 392.311L1364.08 456.759L1364.03 457.12C1363.71 459.105 1361.84 460.476 1359.85 460.164Z"/><path fill="#fff" d="M1253.41 463.128L1251.23 462.837C1210.12 457.323 1193.24 426.48 1196.93 398.951C1200.4 373.05 1222.34 348.335 1263.63 353.873C1308.55 359.896 1305.17 400.191 1304.37 406.169C1303.26 414.5 1298.89 420.921 1287.72 423.11C1278.82 424.867 1265.15 425.062 1255.69 424.16C1252.79 423.772 1252.04 422.383 1251.62 420.112C1250.24 413.844 1248.38 401.61 1248.48 400.885C1248.74 398.892 1250.31 398.182 1252.74 397.954C1262.45 397.044 1263.76 396.852 1264.11 394.315C1264.33 392.685 1261.67 386.428 1254.06 385.408C1245.37 384.242 1237.1 390.877 1235.6 402.107C1233.87 414.966 1241.35 430.72 1263.98 433.756C1265.25 433.925 1266.7 434.12 1267.99 434.109L1268.36 434.158C1270.89 434.498 1273.75 436.541 1273.34 439.619C1273.1 441.431 1266.74 453.115 1263.19 458.909C1261.35 461.613 1258.66 463.832 1253.41 463.128Z"/><path fill="#fff" d="M1166.09 466.352L1156.35 489.277C1154.85 492.735 1153.19 494.544 1150.44 494.516C1149.9 494.51 1149.35 494.505 1148.8 494.316C1119.44 488.164 1109.38 471.976 1108.94 425.737L1095.25 424.863C1093.24 424.66 1091.61 422.815 1091.63 420.805L1094.14 390.495C1094.34 388.487 1096 386.859 1098.2 386.882L1109.88 387.734C1110.32 380.794 1110.77 373.306 1111.39 365.454C1111.6 363.264 1112 359.795 1116.75 359.844L1117.48 359.853L1152 361.855C1155.11 362.07 1156.55 363.912 1156.52 367.018C1156.07 374.69 1155.44 382.724 1154.81 390.394L1167.41 391.255C1169.42 391.276 1171.05 393.12 1171.03 395.313L1168.52 425.624C1168.32 427.449 1166.84 429.079 1164.83 429.058L1164.46 429.054L1152.41 428.381C1152.24 445.009 1154.3 457.64 1162.3 461.196C1164.3 462.13 1166.49 462.883 1166.47 464.893C1166.46 465.259 1166.28 465.806 1166.09 466.352Z"/><path fill="#fff" d="M1058.33 496.766L1052.17 520.904C1051.22 524.547 1049.85 526.589 1047.13 526.977C1046.59 527.053 1046.05 527.131 1045.48 527.028C1015.53 525.397 1003.12 510.922 995.685 465.282L982.013 466.495C979.997 466.599 978.111 465.023 977.827 463.032L975.71 432.692C975.608 430.676 977.002 428.815 979.173 428.506L990.855 427.576C990.235 420.651 989.539 413.181 988.971 405.325C988.842 403.128 988.712 399.639 993.416 398.968L994.14 398.864L1028.56 395.611C1031.67 395.353 1033.37 396.956 1033.81 400.031C1034.53 407.681 1035.13 415.719 1035.67 423.394L1048.25 422.335C1050.24 422.052 1052.13 423.628 1052.44 425.799L1054.56 456.14C1054.63 457.975 1053.42 459.81 1051.43 460.093L1051.07 460.145L1039.05 461.307C1041.4 477.769 1045.35 489.942 1053.8 492.244C1055.92 492.864 1058.2 493.277 1058.48 495.267C1058.53 495.629 1058.43 496.198 1058.33 496.766Z"/><path fill="#fff" d="M967.841 513.44L961.758 537.531C960.852 540.926 959.44 542.939 957.124 543.472C955.344 543.881 942.222 543.9 931.391 537.579C923.238 544.517 914.113 548.868 905.029 550.957C875.289 557.8 844.399 540.905 837.802 512.233C832.885 490.863 840.933 456.571 876.195 448.458C885.099 446.409 894.277 446.36 901.919 447.789C902.701 446.296 904.18 445.394 906.317 444.903L907.207 444.697L938.632 440.279C943.344 439.57 945.124 441.599 945.615 443.736L945.819 444.626C947.056 461.406 948.127 477.473 950.831 489.227C953.29 499.913 957.01 507.12 963.406 508.835C965.392 509.317 967.597 509.934 968.007 511.715C968.088 512.071 968.033 512.646 967.841 513.44ZM912.67 512.446C911.071 507.939 909.567 503.034 908.297 497.514C907.232 492.883 906.303 488.035 905.43 482.61C902.473 479.54 897.092 478.153 891.927 479.341C880.708 481.923 876.974 494.22 879.064 503.302C881.358 513.275 890.271 520.225 901.846 517.562C905.23 516.783 908.984 515.169 912.67 512.446Z"/><path fill="#fff" d="M755.957 571.901L722.003 574.301L721.637 574.307C719.811 574.338 718.321 572.718 718.104 570.711L715.628 532.19C714.402 513.75 710.435 506.142 698.909 505.422L703.317 571.692C703.354 573.884 701.92 575.554 699.913 575.77L665.773 577.991L665.408 577.997C663.581 578.028 662.092 576.408 661.875 574.402L655.704 479.466L655.698 479.101C655.664 477.091 657.101 475.604 658.926 475.391L669.879 474.658C679.145 471.395 688.256 469.779 697.026 469.631C705.248 469.492 712.944 470.642 720.116 473.263C731.736 468.68 742.848 466.482 753.08 466.309C785.237 465.767 809.15 485.65 811.72 518.871C812.652 530.735 814.814 539.654 823.514 546.27C824.627 547.165 826.85 548.956 826.884 550.964C826.899 551.878 826.552 552.981 825.471 553.913C825.477 554.278 810.196 569.341 810.196 569.341C808.218 571.201 806.585 571.96 804.758 571.991C802.199 572.035 773.418 566.854 770.618 530.896C769.372 511.178 765.411 503.934 754.972 502.649L759.361 567.822C759.398 570.015 757.964 571.684 755.957 571.901Z"/><path fill="#fff" d="M591.923 560.543L555.523 559.278C553.34 559.082 551.651 557.462 551.848 555.277L555.287 460.176C555.484 457.992 557.286 456.32 559.288 456.501L580.499 457.312C590.606 455.105 600.201 454.503 609.301 455.323C615.489 455.881 621.429 457.151 626.957 458.934C629.621 459.908 630.582 461.463 630.385 463.646C630.319 464.374 630.072 465.086 629.807 465.98L622.215 491.165C621.439 493.664 619.504 494.775 617.321 494.578C616.774 494.528 616.063 494.281 615.351 494.033C612.521 492.86 609.477 492.035 606.382 491.756C603.835 491.526 601.253 491.661 598.276 492.127L595.923 556.867L595.891 557.231C595.71 559.233 593.924 560.723 591.923 560.543Z"/><path fill="#fff" d="M526.644 482.476C530.884 517.857 497.328 541.938 471.562 545.025C441.986 548.568 413.475 530.266 409.65 498.333C405.171 460.955 430.787 438.193 462.721 434.367C502.821 429.562 523.818 458.887 526.644 482.476ZM471.765 509.848C484.647 508.304 489.192 497.085 487.953 486.742C487.54 483.295 484.706 465.782 466.198 467.999C450.958 469.825 448.146 483.23 449.124 491.395C450.624 503.914 461.423 511.087 471.765 509.848Z"/><path fill="#fff" d="M344.499 540.632L308.392 543.721C306.221 544.029 304.13 542.295 303.822 540.124L303.771 539.762L291.18 397.584C290.846 395.231 292.581 393.14 295.114 392.781L328.299 389.922L329.023 389.819L379.345 385.453C381.516 385.145 383.788 386.853 384.122 389.206L384.173 389.568L387.213 424.02C387.52 426.191 385.812 428.463 383.46 428.797L383.099 428.848L339.341 432.653L340.593 446.688L372.718 445.455C375.12 445.483 377.006 447.062 377.313 449.233L377.391 449.776L377.72 480.736C377.847 482.934 376.113 485.024 373.76 485.358L373.399 485.409L344.014 486.437L348.433 535.83C348.585 538.207 346.851 540.299 344.499 540.632Z"/><path fill="#FE9900" d="M845.242 417.221L794.031 408.822C791.033 408.508 788.864 405.524 787.486 402.9C782.703 393.304 738.808 286.176 728.628 270.225C727.708 268.476 726.675 267.817 725.857 267.73C724.494 267.588 723.835 268.621 723.606 270.802L723.492 271.893L725.225 389.485L725.197 389.758C724.883 392.757 721.585 397.924 714.683 398.027L663.019 399.227L662.2 399.142C658.112 398.713 655.297 394.008 655.396 390.436L665.584 180.11L665.642 179.564C665.956 176.564 668.55 170.222 674.031 170.521L727.448 173.638L727.994 173.695C732.084 174.124 737.308 176.876 738.527 178.382C753.171 196.453 780.875 255.582 801.958 301.613C802.605 303.334 803.366 303.965 804.184 304.051C805.274 304.165 805.991 302.586 806.22 300.406L821.175 189.248C821.517 185.977 824.831 183.292 828.102 183.634L828.648 183.691L880.648 192.448C884.981 193.178 886.575 196.377 886.232 199.648C885.489 206.736 861.845 361.357 852.715 411.665C852.343 415.209 849.059 417.621 845.242 417.221Z"/><path fill="#FE9900" d="M623.982 244.115C631.408 319.129 561.752 369.546 506.378 375.029C444.185 381.186 385.092 340.76 378.368 272.837C376.883 257.836 378.017 241.472 382.072 223.992C394.751 171.227 444.311 143.183 492.32 138.43C579.609 129.789 619.472 198.562 623.982 244.115ZM509.685 313.826C542.145 310.612 558.266 281.471 555.215 250.648C552.541 223.642 534.952 193.431 497.035 197.185C457.483 201.101 447.192 236.276 449.649 261.098C453.079 295.741 481.589 316.608 509.685 313.826Z"/><path fill="#FE9900" d="M236.542 350.564L220.627 311.588C220.263 311.095 220.122 310.285 220.03 309.745C219.329 305.693 223.147 303.643 224.768 303.362L225.848 303.175C244.216 300.001 262.523 286.822 259.581 269.805C258.041 260.892 251.778 253.629 233.271 233.462C219.303 218.629 211.826 204.344 209.538 191.108C202.161 148.431 246.626 115.988 292.004 108.145C302.537 106.324 308.127 106.471 310.728 111.863L327.092 150.205C327.501 150.969 327.641 151.779 327.735 152.318C328.482 156.641 324.71 158.962 323.09 159.242L321.469 159.522C303.912 162.557 288.557 171.886 291.217 187.283C292.805 196.466 301.752 207.995 317.21 223.403C331.45 238.19 338.926 252.475 341.26 265.981C349.011 310.818 299.834 346.58 253.106 354.655C250.405 355.122 247.973 355.542 245.226 355.74C241.715 356.346 237.96 353.935 236.542 350.564Z"/><path fill="#FE9900" d="M40.961 357.853L43.0535 328.784C43.4606 324.208 46.954 320.924 50.4359 320.166L51.5074 319.932C53.7084 319.735 55.5834 319.327 57.7261 318.86C74.8684 315.132 88.1199 303.834 88.5139 288.88C89.0576 260.429 78.125 192.116 67.4506 139.176C66.2035 132.152 69.4526 130.324 72.9345 129.567C80.7021 127.877 126.167 120.231 130.243 119.625C134.913 119.171 138.616 122.011 139.49 126.029L139.607 126.565C147.37 179.017 158.79 237.967 159.122 283.339C159.757 333.975 126.197 358.949 91.1093 366.581C75.842 369.902 60.1434 369.951 46.925 367.216C43.4195 366.575 41.8585 363.269 41.2758 360.59C41.0428 359.519 40.868 358.715 40.961 357.853Z"/></mask><g mask="url(#mask0_27_1392)"><path fill="#F9B634" d="M82.149 241.232C112.503 219.522 152.554 217.4 187.569 230.305C212.529 239.504 243.338 248.568 274.571 252.03C362.461 261.773 411.551 214.012 499.343 224.619C588.903 235.44 624.769 308.272 714.976 307.462C817.135 306.543 998.943 117.684 1031.73 239.848C1051.04 311.805 954.089 383.516 895.779 419.284C869.235 435.565 837.727 440.437 806.874 436.221L448.531 387.259L366.437 376.064C349.803 373.796 332.912 374.228 316.415 377.346L146.128 409.522C136.583 411.326 126.891 412.234 117.176 412.234H-50.3528C-83.3994 411.249 -96.3051 368.862 -69.4138 349.63L82.149 241.232Z"/></g></svg>